<svg xmlns="http://www.w3.org/2000/svg" viewBox="0 0 512 512"><path d="M256 423.724c-92.483 0-167.724-75.242-167.724-167.724S163.518 88.276 256 88.276 423.724 163.518 423.724 256 348.483 423.724 256 423.724zm0-317.793c-82.75 0-150.069 67.319-150.069 150.069S173.25 406.069 256 406.069 406.069 338.75 406.069 256 338.75 105.931 256 105.931z" fill="#707487"/><circle cx="256" cy="256" r="22.069" fill="#ff6464"/><g fill="#464655"><path d="M44.138 264.828H8.828a8.829 8.829 0 0 1 0-17.656h35.31a8.829 8.829 0 0 1 0 17.656zM150.069 264.828H79.448a8.829 8.829 0 0 1 0-17.656h70.621a8.829 8.829 0 0 1 0 17.656zM503.172 264.828h-35.31a8.829 8.829 0 0 1 0-17.656h35.31a8.829 8.829 0 0 1 0 17.656zM432.552 264.828h-70.621a8.829 8.829 0 0 1 0-17.656h70.621a8.829 8.829 0 0 1 0 17.656zM256 512a8.829 8.829 0 0 1-8.828-8.828v-35.31a8.829 8.829 0 0 1 17.656 0v35.31A8.829 8.829 0 0 1 256 512zM256 441.379a8.829 8.829 0 0 1-8.828-8.828V361.93a8.829 8.829 0 0 1 17.656 0v70.621a8.828 8.828 0 0 1-8.828 8.828zM256 52.966a8.829 8.829 0 0 1-8.828-8.828V8.828a8.829 8.829 0 0 1 17.656 0v35.31A8.829 8.829 0 0 1 256 52.966zM256 158.897a8.829 8.829 0 0 1-8.828-8.828V79.448a8.829 8.829 0 0 1 17.656 0v70.621a8.829 8.829 0 0 1-8.828 8.828z"/></g><path d="M256 335.448c-43.806 0-79.448-35.642-79.448-79.448s35.642-79.448 79.448-79.448 79.448 35.642 79.448 79.448-35.642 79.448-79.448 79.448zm0-141.241c-34.073 0-61.793 27.72-61.793 61.793s27.72 61.793 61.793 61.793 61.793-27.72 61.793-61.793-27.72-61.793-61.793-61.793z" fill="#5b5d6e"/><path d="M256 335.448c-43.806 0-79.448-35.642-79.448-79.448s35.642-79.448 79.448-79.448 79.448 35.642 79.448 79.448-35.642 79.448-79.448 79.448zm0-141.241c-34.073 0-61.793 27.72-61.793 61.793s27.72 61.793 61.793 61.793 61.793-27.72 61.793-61.793-27.72-61.793-61.793-61.793z" fill="#959cb3"/><path d="M256 476.69c-121.689 0-220.69-99-220.69-220.69S134.31 35.31 256 35.31s220.69 99 220.69 220.69S377.689 476.69 256 476.69zm0-423.724C144.047 52.966 52.966 144.047 52.966 256S144.047 459.034 256 459.034 459.034 367.953 459.034 256 367.953 52.966 256 52.966z" fill="#5b5d6e"/></svg>