<svg xmlns="http://www.w3.org/2000/svg" viewBox="0 0 448.823 448.823"><path d="M85.828 161.272c15.419 0 29.806-7.609 39.544-20.047 9.738 12.438 24.125 20.047 39.544 20.047 15.419 0 29.806-7.609 39.545-20.047 9.739 12.438 24.126 20.047 39.545 20.047s29.806-7.609 39.544-20.047c9.739 12.438 24.126 20.047 39.545 20.047s29.806-7.609 39.544-20.047c9.739 12.438 24.125 20.047 39.544 20.047 22.181 0 38.556-12.284 46.108-34.59 1.771-5.231-1.034-10.908-6.265-12.679-5.231-1.774-10.908 1.034-12.679 6.265-4.786 14.133-13.671 21.004-27.165 21.004-13.076 0-25.091-9.54-29.899-23.738-1.413-4.174-5.314-6.795-9.49-6.787a9.755 9.755 0 0 0-.171-.004l-.112.003c-4.186-.02-8.102 2.605-9.519 6.789-4.808 14.198-16.823 23.738-29.898 23.738-13.076 0-25.091-9.54-29.899-23.738-1.413-4.175-5.314-6.796-9.49-6.787l-.17-.004-.112.003c-4.187-.021-8.103 2.605-9.519 6.789-4.808 14.198-16.823 23.738-29.898 23.738-13.076 0-25.091-9.54-29.899-23.738-1.414-4.174-5.314-6.796-9.49-6.787l-.17-.004-.112.003c-4.187-.021-8.103 2.605-9.519 6.789-4.808 14.198-16.823 23.738-29.899 23.738s-25.091-9.54-29.898-23.738c-1.413-4.174-5.314-6.795-9.49-6.787l-.17-.004-.112.003c-4.187-.021-8.102 2.605-9.519 6.789-4.808 14.198-16.823 23.738-29.899 23.738-13.494 0-22.379-6.871-27.165-21.004-1.771-5.23-7.447-8.038-12.679-6.265-5.231 1.771-8.036 7.447-6.265 12.679 7.553 22.302 23.928 34.586 46.109 34.586zM86.183 229.629c9.739 12.438 24.125 20.047 39.544 20.047s29.806-7.609 39.544-20.047c9.739 12.438 24.125 20.047 39.544 20.047s29.806-7.609 39.544-20.047c9.739 12.438 24.125 20.047 39.544 20.047s29.806-7.609 39.544-20.047c9.739 12.438 24.125 20.047 39.544 20.047 22.181 0 38.556-12.285 46.108-34.59 1.771-5.231-1.034-10.908-6.265-12.679-5.232-1.774-10.908 1.034-12.679 6.265-4.786 14.134-13.671 21.004-27.165 21.004-13.076 0-25.091-9.54-29.899-23.738-1.414-4.174-5.315-6.795-9.491-6.787l-.17-.004-.111.003c-4.188-.021-8.102 2.605-9.519 6.789-4.808 14.199-16.823 23.738-29.899 23.738s-25.091-9.54-29.899-23.738c-1.413-4.174-5.313-6.795-9.49-6.787l-.17-.004-.111.003c-4.187-.021-8.103 2.605-9.519 6.789-4.808 14.199-16.823 23.738-29.899 23.738s-25.091-9.54-29.899-23.738c-1.413-4.174-5.314-6.795-9.49-6.787a9.755 9.755 0 0 0-.171-.004l-.111.003c-4.187-.021-8.102 2.605-9.519 6.789-4.808 14.199-16.823 23.738-29.899 23.738s-25.091-9.54-29.899-23.738c-1.413-4.174-5.314-6.795-9.49-6.787a9.755 9.755 0 0 0-.171-.004l-.111.003c-4.187-.021-8.102 2.605-9.519 6.789-4.808 14.199-16.823 23.738-29.899 23.738-13.494 0-22.379-6.871-27.165-21.004-1.771-5.23-7.447-8.036-12.679-6.265-5.231 1.771-8.036 7.447-6.265 12.679 7.552 22.306 23.927 34.59 46.108 34.59 15.424-.004 29.811-7.613 39.549-20.051zM442.027 290.811c-5.231-1.772-10.908 1.034-12.679 6.265-4.786 14.133-13.671 21.004-27.165 21.004-13.076 0-25.091-9.54-29.899-23.738-1.414-4.175-5.317-6.797-9.494-6.788a9.087 9.087 0 0 0-.163-.004l-.119.003c-4.186-.019-8.099 2.606-9.515 6.789-4.808 14.199-16.823 23.738-29.898 23.738-13.076 0-25.091-9.54-29.899-23.738-1.414-4.176-5.316-6.798-9.495-6.788a8.756 8.756 0 0 0-.162-.004l-.118.003c-4.186-.02-8.1 2.606-9.516 6.789-4.808 14.199-16.823 23.738-29.898 23.738-13.076 0-25.091-9.54-29.899-23.738-1.414-4.176-5.317-6.798-9.495-6.788a8.756 8.756 0 0 0-.162-.004l-.118.003c-4.187-.02-8.1 2.606-9.516 6.789-4.808 14.199-16.823 23.738-29.899 23.738s-25.091-9.54-29.898-23.738c-1.414-4.176-5.317-6.798-9.495-6.788a8.652 8.652 0 0 0-.163-.004l-.118.003c-4.187-.02-8.1 2.606-9.516 6.789-4.808 14.199-16.823 23.738-29.899 23.738-13.494 0-22.379-6.871-27.165-21.004-1.771-5.23-7.447-8.036-12.679-6.265-5.231 1.771-8.036 7.447-6.265 12.679 7.552 22.306 23.927 34.59 46.108 34.59 15.419 0 29.806-7.609 39.545-20.048 9.738 12.439 24.125 20.048 39.544 20.048s29.806-7.609 39.545-20.048c9.739 12.439 24.126 20.048 39.545 20.048s29.806-7.609 39.544-20.048c9.739 12.439 24.126 20.048 39.545 20.048s29.806-7.609 39.544-20.048c9.739 12.439 24.126 20.048 39.545 20.048 22.181 0 38.556-12.284 46.108-34.59 1.77-5.232-1.035-10.908-6.266-12.679z"/></svg>